# xmcd
#
# Track frame offsets: 
#        150
#        14899
#        29880
#        42327
#        55372
#        67203
#        81371
#        94574
#        107017
#        118395
#        130432
#        143081
#        154133
#        167403
#        181243
#        196345
#        210151
#        223737
#        235545
#        249203
#        261700
#        274876
#        288156
#        302918
#
# Disc length: 4230 seconds
#
# Revision: 0
# Processed by: cddbd v1.5.2PL0 Copyright (c) Steve Scherf et al.
# Submitted via: ExactAudioCopyFreeDBPlugin 1.0
#
DISCID=70108418
DTITLE=Herique e Juliano - Herique e Juliano
DYEAR=1900
DGENRE=Sertanejo
TTITLE0=Até Você Voltar
TTITLE1=Recaídas
TTITLE2=Céu Particular
TTITLE3=Gordinho Saliente
TTITLE4=Jesus Apaga Luz
TTITLE5=Não to Valendo Nada
TTITLE6=Na Hora da Raiva
TTITLE7=Como é Que a Gente Fica
TTITLE8=Avisa ai
TTITLE9=Não Tem Dó de Mim
TTITLE10=Quem Ama Sempre Entende
TTITLE11=Sereia
TTITLE12=É Fake
TTITLE13=Ele Quer Ser Eu
TTITLE14=Cuida Bem Dela
TTITLE15=Faz Tempo
TTITLE16=Estrelas Cadentes
TTITLE17=Nada, Nada
TTITLE18=Parece Piada
TTITLE19=Pra Que Juizo
TTITLE20=As Vezes
TTITLE21=Sem Avisar
TTITLE22=Mudando de Assunto
TTITLE23=Flor e o Beija Flor (feat Marília Mendonça)
EXTD=
EXTT0=
EXTT1=
EXTT2=
EXTT3=
EXTT4=
EXTT5=
EXTT6=
EXTT7=
EXTT8=
EXTT9=
EXTT10=
EXTT11=
EXTT12=
EXTT13=
EXTT14=
EXTT15=
EXTT16=
EXTT17=
EXTT18=
EXTT19=
EXTT20=
EXTT21=
EXTT22=
EXTT23=
PLAYORDER=
